<?xml version="1.0" encoding="UTF-8"?>
<svg id="Layer_1" data-name="Layer 1" xmlns="http://www.w3.org/2000/svg" viewBox="0 0 596.28 842.89">
  <defs>
    <style>
      .cls-1 {
        fill: #231f20;
      }
    </style>
  </defs>
  <path class="cls-1" d="m298.14,380.87c10.71-.16,18.9,10.9,15.34,21.22-4.99,14.6-25.7,14.61-30.69,0-3.57-10.32,4.65-21.38,15.35-21.22h0Zm0,0c-7.84-.18-14.52,7.14-13.61,14.86,2.11,16.41,25.12,16.41,27.22,0,.91-7.73-5.78-15.04-13.62-14.86h0Z"/>
  <path class="cls-1" d="m318.25,395.74c9.77-2.06,19.95-2.08,29.72,0-9.77,2.08-19.95,2.06-29.72,0h0Z"/>
  <path class="cls-1" d="m248.3,395.59c4.95-.44,9.9-.8,14.86-1.05,5.02-.51,9.96-.58,14.86,1.05,0,0,0,.3,0,.3-4.9,1.63-9.84,1.56-14.86,1.05-4.96-.25-9.91-.61-14.86-1.05,0,0,0-.3,0-.3h0Z"/>
  <path class="cls-1" d="m298.14,415.39c1.97,8.44,2.44,16.96,2.5,25.55-.05,8.59-.52,17.11-2.5,25.55-1.98-8.44-2.45-16.96-2.5-25.55.06-8.59.53-17.11,2.5-25.55h0Z"/>
  <path class="cls-1" d="m272.77,421.11c1.88-4.78,5.72-8.64,10.51-10.51-1.87,4.79-5.73,8.63-10.51,10.51h0Z"/>
  <path class="cls-1" d="m323.04,420.64c-4.61-1.72-8.33-5.42-10.04-10.04,4.62,1.71,8.32,5.43,10.04,10.04h0Z"/>
  <path class="cls-1" d="m278.63,395.92c-1.7-14.64,14.25-25.3,27.52-19.33,7.44,3.1,12.6,11.45,11.5,19.33-1.05-9.99-9.55-18.14-19.51-18.01-9.96-.14-18.47,8.02-19.51,18.01h0Z"/>
  <path class="cls-1" d="m319.32,376.41c18.32,18.49,4.56,49.35-21.18,49.49-18.3.03-32.61-16.9-29.02-34.92,1.1-5.56,3.86-10.72,7.84-14.58-3.47,4.3-5.73,9.47-6.38,14.81-3.15,27.44,29.77,42.74,48.4,22.21,9.17-10.33,9.2-26.37.34-37.03h0Z"/>
</svg>