<?xml version="1.0" encoding="UTF-8"?>
<svg id="Layer_1" data-name="Layer 1" xmlns="http://www.w3.org/2000/svg" viewBox="0 0 434.6 397.68">
  <defs>
    <style>
      .cls-1 {
        fill: #fff;
      }
    </style>
  </defs>
  <path class="cls-1" d="m217.3,24.45c46.5-.21,79.61,47.14,63.09,90.93-9.38,25.83-35.55,43.96-63.09,43.66-27.48.35-53.79-17.85-63.11-43.65-16.53-43.79,16.62-91.16,63.11-90.94h0Zm0,0c-25.56-.28-49.85,16.58-58.48,40.58-15.14,40.52,15.53,84.2,58.48,84.02,42.97.21,73.66-43.5,58.49-84.03-8.59-23.95-32.98-40.88-58.49-40.57h0Z"/>
  <path class="cls-1" d="m305,89.25c21.48-3.97,43.08-4.86,64.8-5,21.71.12,43.32,1.01,64.8,5-21.48,3.99-43.08,4.88-64.8,5-21.71-.14-43.32-1.03-64.8-5h0Z"/>
  <path class="cls-1" d="m0,88.75c20.89-1.48,43.8-2.67,64.8-3.5,5.4-.21,10.8-.61,16.2-.95,10.83-.68,21.63.07,32.4,1.42,5.4.72,10.8,1.6,16.2,3.03v1c-10.69,2.75-21.49,3.84-32.4,4.5-10.81.72-21.61-.57-32.4-1-8.07-.3-24.34-1.05-32.4-1.5-10.8-.61-21.6-1.21-32.4-2v-1h0Z"/>
  <path class="cls-1" d="m217.3,174.92c3.97,37.05,4.87,74.19,5,111.38-.11,37.19-1.01,74.32-5,111.38-3.99-37.05-4.89-74.19-5-111.38.13-37.19,1.03-74.32,5-111.38h0Z"/>
  <path class="cls-1" d="m106.68,199.86c8.18-17.65,28.13-37.68,45.82-45.82-8.14,17.68-28.15,37.63-45.82,45.82h0Z"/>
  <path class="cls-1" d="m325.88,197.83c-17.07-7.6-36.22-26.67-43.78-43.78,17.1,7.55,36.18,26.7,43.78,43.78h0Z"/>
  <path class="cls-1" d="m132.25,90.04C127.71,41.44,169.01-.4,217.3,0c48.28-.43,89.62,41.45,85.05,90.04-3.1-38.17-31.56-71.72-69.41-78.57-50.28-9.71-96.51,28.08-100.68,78.57h-.01Z"/>
  <path class="cls-1" d="m309.64,4.99c21.57,21.57,34.45,51.51,35.47,82,3.27,71.85-56.08,132.49-127.81,132.25-83.23-.03-145.13-78.79-123.74-159.52,2.4-8.8,5.69-17.49,9.99-25.54,5.63-10.75,12.89-20.6,21.42-29.19-19.29,23.14-30,52.33-29.74,82.1.14,67.04,54.86,122.36,122.08,122.16,23.15.08,46.21-6.66,65.66-19.25,63.18-40.24,74.87-127.99,26.68-185.01h-.01Z"/>
</svg>